General
ID                                       : 1 (0x1)
Complete name                            : D:\Geordie.Shore.S13E02.1080i.HDTV.DD5.1.MPEG2-lulz.ts
Format                                   : MPEG-TS
File size                                : 5.17 GiB
Duration                                 : 43mn 43s
Overall bit rate mode                    : Variable
Overall bit rate                         : 16.9 Mbps

Video
ID                                       : 309 (0x135)
Menu ID                                  : 3903 (0xF3F)
Format                                   : MPEG Video
Format version                           : Version 2
Format profile                           : Main@High
Format settings, BVOP                    : Yes
Format settings, Matrix                  : Custom
Format settings, GOP                     : Variable
Format settings, picture structure       : Frame
Codec ID                                 : 2
Duration                                 : 43mn 42s
Bit rate mode                            : Variable
Bit rate                                 : 15.7 Mbps
Maximum bit rate                         : 24.0 Mbps
Width                                    : 1 920 pixels
Height                                   : 1 080 pixels
Display aspect ratio                     : 16:9
Frame rate                               : 25.000 fps
Color space                              : YUV
Chroma subsampling                       : 4:2:0
Bit depth                                : 8 bits
Scan type                                : Interlaced
Scan order                               : Top Field First
Compression mode                         : Lossy
Bits/(Pixel*Frame)                       : 0.303
Time code of first frame                 : 00:00:00:00
Time code source                         : Group of pictures header
GOP, Open/Closed                         : Open
GOP, Open/Closed of first frame          : Closed
Stream size                              : 4.79 GiB (93%)

Audio
ID                                       : 331 (0x14B)
Menu ID                                  : 3903 (0xF3F)
Format                                   : AC-3
Format/Info                              : Audio Coding 3
Mode extension                           : CM (complete main)
Format settings, Endianness              : Big
Codec ID                                 : 6
Duration                                 : 43mn 42s
Bit rate mode                            : Constant
Bit rate                                 : 384 Kbps
Channel(s)                               : 6 channels
Channel positions                        : Front: L C R, Side: L R, LFE
Sampling rate                            : 48.0 KHz
Frame rate                               : 31.250 fps (1536 spf)
Compression mode                         : Lossy
Delay relative to video                  : 11ms
Stream size                              : 120 MiB (2%)
Language                                 : English
